<svg width="646" height="308" viewBox="0 0 646 308" fill="none" xmlns="http://www.w3.org/2000/svg">
<g filter="url(#filter0_d_592_33)">
<path d="M257.375 -133.078C213.924 -114.154 240.327 -58.1712 204.266 -31.7514C157.085 2.81583 68.3587 -8.35041 31.5814 32.348C-5.74602 73.6553 0.564875 128.514 19.4605 172.758C39.8974 220.611 79.2351 266.115 140.307 286.928C200.66 307.497 275.958 300.476 342.56 282.87C401.576 267.27 437.993 224.695 487.642 195.114C535.641 166.515 605.223 153.202 629.562 111.872C653.943 70.4707 638.307 22.4615 611.064 -14.4694C586.969 -47.1331 533.716 -58.015 490.397 -76.783C457.297 -91.1236 424.132 -102.529 387.239 -111.442C344.482 -121.771 298.825 -151.131 257.375 -133.078Z" fill="#2AB1AD"/>
</g>
<defs>
<filter id="filter0_d_592_33" x="0.380371" y="-138.82" width="645.294" height="446.33" filterUnits="userSpaceOnUse" color-interpolation-filters="sRGB">
<feFlood flood-opacity="0" result="BackgroundImageFix"/>
<feColorMatrix in="SourceAlpha" type="matrix" values="0 0 0 0 0 0 0 0 0 0 0 0 0 0 0 0 0 0 127 0" result="hardAlpha"/>
<feOffset dy="4"/>
<feGaussianBlur stdDeviation="2"/>
<feComposite in2="hardAlpha" operator="out"/>
<feColorMatrix type="matrix" values="0 0 0 0 0 0 0 0 0 0 0 0 0 0 0 0 0 0 0.25 0"/>
<feBlend mode="normal" in2="BackgroundImageFix" result="effect1_dropShadow_592_33"/>
<feBlend mode="normal" in="SourceGraphic" in2="effect1_dropShadow_592_33" result="shape"/>
</filter>
</defs>
</svg>
